<svg width="296" height="128" viewBox="0 0 296 128" fill="none" xmlns="http://www.w3.org/2000/svg">
<g clip-path="url(#clip0_1212_2028)">
<path d="M119.02 95.5C111.977 107.755 101.032 117.271 87.9488 122.515C74.8655 127.759 60.406 128.425 46.9 124.406C33.394 120.387 21.6283 111.916 13.4986 100.36C5.36891 88.8039 1.34878 74.8345 2.08598 60.7029C2.82319 46.5713 8.27479 33.1006 17.5624 22.4613C26.8499 11.822 39.4325 4.63385 53.2827 2.05503C67.1328 -0.523784 81.4439 1.65695 93.9099 8.24585C106.376 14.8348 116.271 25.4481 122 38.3756" stroke="#16A34A" stroke-width="2"/>
<path d="M87.008 70.312C87.008 73.32 85.872 75.608 83.6 77.176C81.36 78.744 78.624 79.528 75.392 79.528C72.192 79.528 69.552 79.144 67.472 78.376C65.424 77.608 64.4 76.76 64.4 75.832V70.216C64.4 69.544 64.656 69.208 65.168 69.208C65.584 69.208 65.872 69.512 66.032 70.12C66.864 72.584 67.936 74.424 69.248 75.64C70.592 76.824 72.464 77.416 74.864 77.416C77.264 77.416 79.2 76.872 80.672 75.784C82.176 74.696 82.928 73.192 82.928 71.272C82.928 69.16 81.744 67.384 79.376 65.944C78.32 65.304 77.152 64.68 75.872 64.072C74.592 63.464 73.312 62.84 72.032 62.2C70.752 61.528 69.584 60.808 68.528 60.04C66.16 58.312 64.976 56.136 64.976 53.512C64.976 50.856 65.984 48.76 68 47.224C70.048 45.656 72.448 44.872 75.2 44.872C77.952 44.872 80.288 45.224 82.208 45.928C84.128 46.6 85.088 47.352 85.088 48.184V53.032C85.088 53.672 84.848 53.992 84.368 53.992C83.92 53.992 83.584 53.672 83.36 53.032C82.688 50.984 81.808 49.464 80.72 48.472C79.632 47.48 78 46.984 75.824 46.984C73.68 46.984 71.984 47.496 70.736 48.52C69.488 49.544 68.864 50.824 68.864 52.36C68.864 53.864 69.488 55.176 70.736 56.296C71.984 57.384 73.488 58.36 75.248 59.224C77.04 60.056 78.816 60.936 80.576 61.864C82.368 62.76 83.888 63.928 85.136 65.368C86.384 66.808 87.008 68.456 87.008 70.312ZM112.654 68.536C112.654 64.696 111.886 61.72 110.35 59.608C108.814 57.496 106.894 56.44 104.59 56.44C102.318 56.44 100.606 57.064 99.4539 58.312C98.3339 59.528 97.7739 60.824 97.7739 62.2V71.848C97.7739 73.384 98.4459 74.744 99.7899 75.928C101.166 77.08 102.67 77.656 104.302 77.656C106.862 77.656 108.894 76.856 110.398 75.256C111.902 73.656 112.654 71.416 112.654 68.536ZM97.0059 54.472C97.5179 54.472 97.7739 54.84 97.7739 55.576V56.488C97.7739 56.872 97.9019 56.952 98.1579 56.728C98.4459 56.504 98.8299 56.248 99.3099 55.96C99.7899 55.64 100.526 55.32 101.518 55C102.51 54.648 103.518 54.472 104.542 54.472C108.286 54.472 111.262 55.608 113.47 57.88C115.71 60.12 116.83 63.128 116.83 66.904C116.83 70.68 115.662 73.736 113.326 76.072C110.99 78.376 108.142 79.528 104.782 79.528C102.318 79.528 100.174 78.856 98.3499 77.512C98.1899 77.384 98.0459 77.368 97.9179 77.464C97.8219 77.56 97.7739 77.72 97.7739 77.944V90.232C97.7739 91.384 98.4139 92.04 99.6939 92.2L100.51 92.296C100.894 92.328 101.086 92.552 101.086 92.968C101.086 93.384 100.846 93.592 100.366 93.592L95.8059 93.4L90.6219 93.592C90.1419 93.592 89.9019 93.384 89.9019 92.968C89.9019 92.552 90.0939 92.328 90.4779 92.296L91.8219 92.2C92.4619 92.136 92.9899 91.928 93.4059 91.576C93.8219 91.256 94.0299 90.808 94.0299 90.232V58.264C94.0299 57.624 93.8859 57.192 93.5979 56.968C93.3419 56.712 92.9099 56.584 92.3019 56.584H90.6699C90.2539 56.584 90.0459 56.376 90.0459 55.96C90.0459 55.544 90.2539 55.304 90.6699 55.24L96.9099 54.472C96.9419 54.472 96.9739 54.472 97.0059 54.472ZM143.282 78.76C143.282 79.272 142.706 79.528 141.554 79.528C139.57 79.528 137.89 78.744 136.514 77.176C136.29 76.952 136.114 76.84 135.986 76.84C135.89 76.84 135.73 76.936 135.506 77.128C133.426 78.728 131.09 79.528 128.498 79.528C126.674 79.528 125.074 78.968 123.698 77.848C122.322 76.696 121.634 75.224 121.634 73.432C121.634 71.16 122.626 69.432 124.61 68.248C126.37 67.224 129.122 66.424 132.866 65.848C133.762 65.688 134.37 65.576 134.69 65.512C135.106 65.48 135.314 65.256 135.314 64.84V60.424C135.314 59.112 134.866 58.072 133.97 57.304C133.106 56.536 131.938 56.152 130.466 56.152C129.026 56.152 127.714 56.6 126.53 57.496C125.378 58.392 124.642 59.64 124.322 61.24C124.226 61.72 123.954 61.96 123.506 61.96C123.09 61.96 122.882 61.72 122.882 61.24V57.64C122.882 57.096 123.058 56.696 123.41 56.44C125.106 55.128 127.538 54.472 130.706 54.472C133.874 54.472 136.098 55.16 137.378 56.536C138.658 57.912 139.298 59.688 139.298 61.864V74.68C139.298 75.704 139.618 76.536 140.258 77.176C140.93 77.816 141.714 78.136 142.61 78.136C143.058 78.136 143.282 78.344 143.282 78.76ZM135.218 74.296V68.296C135.218 67.816 135.01 67.576 134.594 67.576C134.562 67.576 134.514 67.576 134.45 67.576C128.722 68.28 125.858 70.04 125.858 72.856C125.858 74.168 126.29 75.208 127.154 75.976C128.018 76.712 128.978 77.08 130.034 77.08C131.122 77.08 132.066 76.872 132.866 76.456C133.698 76.04 134.29 75.624 134.642 75.208C135.026 74.792 135.218 74.488 135.218 74.296ZM166.406 62.056C166.406 62.6 166.182 62.872 165.734 62.872C165.35 62.872 165.094 62.6 164.966 62.056C164.486 60.296 163.702 58.904 162.614 57.88C161.526 56.856 160.15 56.344 158.486 56.344C156.086 56.344 154.134 57.24 152.63 59.032C151.126 60.792 150.374 63.144 150.374 66.088C150.374 69.768 151.27 72.52 153.062 74.344C154.886 76.168 156.982 77.08 159.35 77.08C161.75 77.08 163.702 76.6 165.206 75.64C165.43 75.48 165.638 75.4 165.83 75.4C166.022 75.4 166.182 75.464 166.31 75.592C166.47 75.72 166.55 75.912 166.55 76.168C166.55 76.392 166.422 76.632 166.166 76.888C164.406 78.648 161.782 79.528 158.294 79.528C154.838 79.528 151.942 78.424 149.606 76.216C147.302 73.976 146.15 70.76 146.15 66.568C146.15 63.272 147.302 60.44 149.606 58.072C151.942 55.672 154.806 54.472 158.198 54.472C160.534 54.472 162.486 54.84 164.054 55.576C165.622 56.28 166.406 57.048 166.406 57.88V62.056ZM192.825 63.832C192.825 65.752 191.961 66.712 190.233 66.712H176.409C176.025 66.712 175.833 66.984 175.833 67.528C175.897 70.472 176.745 72.808 178.377 74.536C180.041 76.232 182.137 77.08 184.665 77.08C187.225 77.08 189.113 76.584 190.329 75.592C190.745 75.272 191.129 75.288 191.481 75.64C191.833 75.992 191.785 76.392 191.337 76.84C189.545 78.632 187.081 79.528 183.945 79.528C180.009 79.528 176.921 78.408 174.681 76.168C172.473 73.896 171.369 70.744 171.369 66.712C171.369 63.448 172.473 60.6 174.681 58.168C176.889 55.704 179.513 54.472 182.553 54.472C185.625 54.472 188.105 55.368 189.993 57.16C191.881 58.92 192.825 61.144 192.825 63.832ZM188.505 63.208C188.505 61.288 187.977 59.672 186.921 58.36C185.897 57.016 184.441 56.344 182.553 56.344C180.697 56.344 179.113 57.112 177.801 58.648C176.489 60.184 175.833 61.944 175.833 63.928C175.833 64.44 176.041 64.696 176.457 64.696H187.017C188.009 64.696 188.505 64.2 188.505 63.208ZM203.048 54.472C203.56 54.472 203.816 54.84 203.816 55.576V57.688C203.816 57.848 203.864 57.928 203.96 57.928C204.088 57.928 204.248 57.832 204.44 57.64C206.392 55.528 208.52 54.472 210.824 54.472C212.552 54.472 213.96 54.792 215.048 55.432C216.168 56.04 217.064 57.064 217.736 58.504C217.832 58.696 217.928 58.792 218.024 58.792C218.12 58.792 218.232 58.68 218.36 58.456C220.312 55.8 222.76 54.472 225.704 54.472C228.168 54.472 230.088 55.24 231.464 56.776C232.84 58.312 233.528 60.536 233.528 63.448V75.832C233.528 76.408 233.752 76.872 234.2 77.224C234.68 77.544 235.24 77.736 235.88 77.8L237.176 77.896C237.56 77.928 237.752 78.152 237.752 78.568C237.752 78.984 237.512 79.192 237.032 79.192L231.896 79L227.528 79.192C227.048 79.192 226.808 78.984 226.808 78.568C226.808 78.152 227 77.928 227.384 77.896L228.008 77.8C229.192 77.608 229.784 76.952 229.784 75.832V62.776C229.784 58.776 228.072 56.776 224.648 56.776C223.048 56.776 221.656 57.56 220.472 59.128C219.288 60.664 218.696 62.248 218.696 63.88V75.736C218.696 76.984 219.256 77.672 220.376 77.8L221.192 77.896C221.544 77.928 221.72 78.152 221.72 78.568C221.72 78.984 221.512 79.192 221.096 79.192L216.872 79L212.648 79.192C212.168 79.192 211.928 79 211.928 78.616C211.928 78.2 212.12 77.96 212.504 77.896L213.224 77.8C214.376 77.64 214.952 76.984 214.952 75.832V62.776C214.952 58.776 213.256 56.776 209.864 56.776C208.328 56.776 206.936 57.528 205.688 59.032C204.44 60.536 203.816 62.152 203.816 63.88V75.832C203.816 76.984 204.456 77.64 205.736 77.8L206.552 77.896C206.936 77.928 207.128 78.152 207.128 78.568C207.128 78.984 206.888 79.192 206.408 79.192L201.848 79L196.664 79.192C196.184 79.192 195.944 78.984 195.944 78.568C195.944 78.152 196.136 77.928 196.52 77.896L197.864 77.8C198.504 77.736 199.032 77.544 199.448 77.224C199.864 76.872 200.072 76.408 200.072 75.832V58.264C200.072 57.624 199.928 57.192 199.64 56.968C199.384 56.712 198.952 56.584 198.344 56.584H196.712C196.296 56.584 196.088 56.376 196.088 55.96C196.088 55.544 196.296 55.304 196.712 55.24L202.952 54.472C202.984 54.472 203.016 54.472 203.048 54.472ZM262.298 78.76C262.298 79.272 261.722 79.528 260.57 79.528C258.586 79.528 256.906 78.744 255.53 77.176C255.306 76.952 255.13 76.84 255.002 76.84C254.906 76.84 254.746 76.936 254.522 77.128C252.442 78.728 250.106 79.528 247.514 79.528C245.69 79.528 244.09 78.968 242.714 77.848C241.338 76.696 240.65 75.224 240.65 73.432C240.65 71.16 241.642 69.432 243.626 68.248C245.386 67.224 248.138 66.424 251.882 65.848C252.778 65.688 253.386 65.576 253.706 65.512C254.122 65.48 254.33 65.256 254.33 64.84V60.424C254.33 59.112 253.882 58.072 252.986 57.304C252.122 56.536 250.954 56.152 249.482 56.152C248.042 56.152 246.73 56.6 245.546 57.496C244.394 58.392 243.658 59.64 243.338 61.24C243.242 61.72 242.97 61.96 242.522 61.96C242.106 61.96 241.898 61.72 241.898 61.24V57.64C241.898 57.096 242.074 56.696 242.426 56.44C244.122 55.128 246.554 54.472 249.722 54.472C252.89 54.472 255.114 55.16 256.394 56.536C257.674 57.912 258.314 59.688 258.314 61.864V74.68C258.314 75.704 258.634 76.536 259.274 77.176C259.946 77.816 260.73 78.136 261.626 78.136C262.074 78.136 262.298 78.344 262.298 78.76ZM254.234 74.296V68.296C254.234 67.816 254.026 67.576 253.61 67.576C253.578 67.576 253.53 67.576 253.466 67.576C247.738 68.28 244.874 70.04 244.874 72.856C244.874 74.168 245.306 75.208 246.17 75.976C247.034 76.712 247.994 77.08 249.05 77.08C250.138 77.08 251.082 76.872 251.882 76.456C252.714 76.04 253.306 75.624 253.658 75.208C254.042 74.792 254.234 74.488 254.234 74.296ZM270.83 54.472C271.342 54.472 271.598 54.84 271.598 55.576V58.024C271.598 58.184 271.646 58.264 271.742 58.264C271.87 58.264 272.03 58.168 272.222 57.976C274.078 55.64 276.494 54.472 279.47 54.472C282.478 54.472 284.782 55.272 286.382 56.872C287.982 58.44 288.782 60.712 288.782 63.688V75.832C288.782 76.408 289.006 76.872 289.454 77.224C289.934 77.544 290.494 77.736 291.134 77.8L292.43 77.896C292.814 77.928 293.006 78.152 293.006 78.568C293.006 78.984 292.766 79.192 292.286 79.192L287.15 79L282.782 79.192C282.302 79.192 282.062 78.984 282.062 78.568C282.062 78.152 282.254 77.928 282.638 77.896L283.262 77.8C284.446 77.608 285.038 76.952 285.038 75.832V63.016C285.038 61.032 284.478 59.496 283.358 58.408C282.238 57.32 280.686 56.776 278.702 56.776C276.75 56.776 275.07 57.592 273.662 59.224C272.286 60.824 271.598 62.408 271.598 63.976V75.832C271.598 76.984 272.238 77.64 273.518 77.8L274.334 77.896C274.718 77.928 274.91 78.152 274.91 78.568C274.91 78.984 274.67 79.192 274.19 79.192L269.63 79L264.446 79.192C263.966 79.192 263.726 78.984 263.726 78.568C263.726 78.152 263.918 77.928 264.302 77.896L265.646 77.8C266.286 77.736 266.814 77.544 267.23 77.224C267.646 76.872 267.854 76.408 267.854 75.832V58.264C267.854 57.624 267.71 57.192 267.422 56.968C267.166 56.712 266.734 56.584 266.126 56.584H264.494C264.078 56.584 263.87 56.376 263.87 55.96C263.87 55.544 264.078 55.304 264.494 55.24L270.734 54.472C270.766 54.472 270.798 54.472 270.83 54.472Z" fill="#16A34A"/>
</g>
<defs>
<clipPath id="clip0_1212_2028">
<rect width="296" height="128" fill="white"/>
</clipPath>
</defs>
</svg>
